<?xml version="1.0" standalone="no"?>
<!DOCTYPE svg PUBLIC "-//W3C//DTD SVG 20010904//EN"
 "http://www.w3.org/TR/2001/REC-SVG-20010904/DTD/svg10.dtd">
<svg version="1.0" xmlns="http://www.w3.org/2000/svg"
 width="16.000000pt" height="16.000000pt" viewBox="0 0 16.000000 16.000000"
 preserveAspectRatio="xMidYMid meet">
<metadata>
Created by potrace 1.11, written by Peter Selinger 2001-2013
</metadata>
<g transform="translate(0.000000,16.000000) scale(0.002286,-0.002286)"
fill="#000000" stroke="none">
<path d="M3407 6984 c-1 -1 -51 -5 -111 -8 -60 -4 -112 -9 -115 -10 -3 -2 -33
-6 -66 -10 -33 -3 -71 -8 -85 -11 -14 -3 -41 -8 -60 -11 -113 -18 -414 -107
-507 -150 -17 -8 -34 -14 -37 -14 -9 0 -267 -127 -326 -161 -199 -113 -407
-274 -575 -443 -154 -155 -175 -179 -273 -309 -290 -386 -479 -843 -542 -1312
-5 -38 -12 -90 -15 -115 -9 -67 -27 -4410 -18 -4410 2 0 1202 895 1276 952 16
13 176 132 354 265 270 202 328 241 343 233 17 -9 219 -64 272 -74 100 -18
163 -28 260 -41 229 -30 551 -22 793 20 44 8 91 16 105 19 14 2 70 15 125 30
878 225 1594 854 1928 1696 84 211 150 465 173 660 3 30 9 64 11 75 9 36 11
509 3 575 -5 36 -11 83 -13 105 -6 51 -25 157 -37 215 -6 25 -13 56 -15 70
-16 85 -94 320 -152 454 -64 151 -245 475 -282 506 -4 3 -15 19 -25 35 -101
159 -370 434 -579 593 -398 302 -844 484 -1367 557 -71 10 -435 26 -443 19z
m278 -799 c113 -10 139 -14 221 -31 401 -82 746 -267 1035 -554 327 -325 527
-734 587 -1200 15 -114 5 -540 -13 -569 -1 -3 -6 -24 -9 -46 -31 -202 -144
-494 -268 -693 -106 -170 -293 -386 -427 -492 -24 -19 -48 -40 -55 -46 -13
-12 -192 -133 -226 -153 -155 -89 -338 -163 -521 -210 -113 -30 -138 -34 -234
-46 -27 -3 -62 -8 -77 -11 -30 -6 -313 -6 -368 0 -235 24 -403 67 -655 168
-82 33 -155 62 -161 65 -10 4 -216 -142 -222 -159 -2 -4 -10 -8 -17 -8 -7 0
-15 -3 -17 -7 -1 -5 -91 -73 -198 -153 -107 -80 -199 -149 -205 -153 -16 -13
-285 -214 -338 -253 l-48 -35 4 1358 c2 747 7 1381 11 1408 29 234 69 388 154
590 137 329 362 613 677 853 95 72 310 191 440 242 90 36 289 95 350 104 22 3
53 9 68 12 44 9 75 13 177 20 52 3 96 7 97 8 4 4 170 -2 238 -9z"/>
</g>
</svg>
