<?xml version="1.0" standalone="no"?>
<!DOCTYPE svg PUBLIC "-//W3C//DTD SVG 20010904//EN"
 "http://www.w3.org/TR/2001/REC-SVG-20010904/DTD/svg10.dtd">
<svg version="1.0" xmlns="http://www.w3.org/2000/svg"
 width="16.000000pt" height="16.000000pt" viewBox="0 0 16.000000 16.000000"
 preserveAspectRatio="xMidYMid meet">
<metadata>
Created by potrace 1.11, written by Peter Selinger 2001-2013
</metadata>
<g transform="translate(0.000000,16.000000) scale(0.001087,-0.001087)"
fill="#000000" stroke="none">
<path d="M7000 14559 c-944 -82 -1873 -466 -2589 -1070 -120 -102 -376 -354
-480 -474 -476 -547 -823 -1214 -1000 -1920 -29 -116 -80 -388 -103 -550 -20
-138 -20 -213 -29 -4775 -5 -3110 -5 -4674 2 -4753 36 -421 325 -762 732 -867
372 -94 787 60 1013 376 53 74 116 200 139 274 46 157 45 81 45 2858 0 1436 2
2612 4 2612 3 0 63 -38 134 -84 641 -420 1418 -681 2192 -737 202 -15 612 -7
795 16 918 110 1756 469 2455 1050 125 105 380 355 489 480 608 703 972 1520
1104 2480 30 220 32 812 4 1030 -57 438 -150 805 -302 1190 -66 168 -238 515
-335 675 -283 468 -662 897 -1085 1226 -706 550 -1572 888 -2470 964 -139 11
-577 11 -715 -1z m780 -1954 c288 -50 498 -118 755 -244 531 -262 925 -658
1190 -1196 171 -348 258 -694 272 -1080 20 -585 -171 -1184 -534 -1670 -438
-585 -1130 -965 -1888 -1035 -513 -47 -1102 92 -1567 371 -687 412 -1127 1082
-1255 1909 -22 143 -25 519 -5 655 68 465 225 870 473 1221 321 452 778 788
1319 968 189 62 373 101 620 130 19 2 132 3 250 1 178 -3 242 -8 370 -30z"/>
</g>
</svg>
